<svg width="74" height="36" viewBox="0 0 74 36" fill="none" xmlns="http://www.w3.org/2000/svg">
<g clip-path="url(#clip0_11821_29)">
<path d="M31.5942 0.5341C31.13 0.844257 30.7914 1.2358 30.486 1.69814C29.361 1.71725 28.3027 2.03924 27.5036 2.86906C26.7421 3.65992 26.4824 4.61984 26.5179 5.6949L26.5213 5.7762C26.6629 6.74109 27.0519 7.53162 27.8385 8.12688C28.0247 8.26774 28.4388 8.47268 28.8606 8.68136C29.4044 8.95044 29.9608 9.22575 30.0572 9.37794C30.3891 9.85219 31.2757 10.1292 31.8252 10.2301C32.6853 10.3879 33.4531 10.3172 34.2809 10.0719C35.4612 11.9017 35.9592 13.8235 36.2329 15.9693L36.1353 16.1509C35.8891 15.9345 35.6862 15.6012 35.4849 15.2706C35.3419 15.0358 35.1998 14.8024 35.0435 14.613C33.4737 12.7081 31.0882 11.3607 28.5619 11.5029C28.0626 11.5309 26.9119 11.6472 26.5219 11.9809C26.463 12.4435 26.9691 13.1726 27.2568 13.5409C28.9408 15.6966 31.679 16.2268 34.2268 16.7201C34.4608 16.7654 34.6932 16.8104 34.923 16.8563C34.9399 16.8597 34.9579 16.8631 34.9766 16.8667C35.1718 16.9037 35.4501 16.9566 35.4984 17.1454L35.472 17.2145C32.8706 16.7768 30.1544 17.0925 27.9615 18.6644C26.0871 20.0081 25.011 22.1291 24.6477 24.3731C24.2164 27.0366 24.6665 30.0173 26.2698 32.2348C27.5661 34.0277 29.4806 35.1652 31.6601 35.5098C34.0688 35.8905 36.6862 35.4429 38.6769 33.9853C40.566 32.6021 41.6355 30.4877 41.982 28.206C42.3989 25.4599 42.0159 22.5405 40.3345 20.2674C39.6083 19.2857 38.7514 18.6179 37.7076 18.0025C37.685 17.9892 37.6621 17.9765 37.6396 17.964C37.5113 17.8928 37.3913 17.8262 37.3561 17.6654C39.6967 16.8644 42.0118 15.8999 43.8753 14.2234C44.7792 13.4101 46.3548 11.5148 46.4194 10.3156C46.3135 10.1458 46.2804 10.115 46.0852 10.0576C45.6808 9.93829 45.1713 9.92224 44.7462 9.91314C42.4858 9.86427 40.5776 10.8975 39.1732 12.6276C39.0899 12.7301 38.9658 12.9231 38.8274 13.1383C38.5579 13.5576 38.2342 14.0609 38.0533 14.142C38.0372 14.1492 38.0208 14.1555 38.0044 14.1618C37.9956 14.1652 37.9868 14.1686 37.9781 14.1721C38.1291 13.5493 38.3292 12.9316 38.5291 12.3144C38.6749 11.864 38.8208 11.4138 38.9474 10.9621L39.0136 10.9098C40.609 9.64277 41.7513 7.7355 41.9729 5.69564C42.1384 4.17719 41.7794 2.84896 40.8233 1.65373C40.6653 1.73586 40.509 1.82064 40.3584 1.91501C39.0045 2.766 38.275 4.41051 37.9491 5.92318C37.6216 7.44229 37.5463 9.63599 38.4189 10.9851C37.8698 12.7114 37.3371 14.4428 36.8201 16.1789C36.6084 13.944 35.9459 11.7012 34.7759 9.78313C34.9658 9.61043 35.142 9.42318 35.3024 9.2231C35.9724 8.39775 36.7713 6.81296 36.6605 5.73278C36.5384 5.57588 36.4027 4.84269 36.2872 4.21858C36.2221 3.86657 36.1634 3.54926 36.1171 3.38963C35.8905 2.60497 35.5845 1.87126 35.2355 1.13423C34.8963 0.613335 34.3925 0.195817 33.7731 0.0583541C33.0049 -0.11211 32.238 0.104178 31.5942 0.5341ZM32.4017 17.7802C33.4868 17.6731 34.4883 17.7808 35.4323 18.3749C36.9558 19.3339 37.6936 21.1288 38.0765 22.8147C38.7332 25.7107 38.7299 30.4167 37.0658 33.002C36.3884 34.0544 35.515 34.567 34.3178 34.8267C33.201 34.9468 32.1369 34.8358 31.1796 34.2041C29.6069 33.1662 28.9163 31.1943 28.5524 29.4279C27.9429 26.4692 27.8597 22.2141 29.6134 19.593C30.3153 18.5439 31.1888 18.0297 32.4017 17.7802Z" fill="#353C3A"/>
<path d="M30.486 1.69815C30.7913 1.2358 31.1298 0.844258 31.5942 0.534099C32.2379 0.104177 33.0049 -0.112108 33.7731 0.0583554C34.3924 0.195818 34.8962 0.613333 35.2354 1.13423C34.1743 1.44142 33.8124 1.84926 33.1972 2.76187C33.0354 3.20635 32.8968 3.67142 32.8576 4.14526C33.6041 4.80321 34.0838 5.54362 34.15 6.56268C34.158 6.68443 34.167 6.70709 34.1005 6.80576L33.8292 6.72553C33.5875 6.90212 33.5269 7.20302 33.4818 7.48505C33.4014 7.98875 33.3896 8.5319 33.3995 9.04164C32.7767 8.85935 32.2283 8.79608 31.58 8.82626C31.0466 8.95827 30.5432 9.11219 30.0571 9.37793C29.886 9.10772 28.2646 8.44936 27.8384 8.12688C27.0518 7.53162 26.6628 6.74109 26.5212 5.7762L26.5178 5.6949C26.4823 4.61984 26.742 3.65992 27.5035 2.86906C28.3026 2.03924 29.3609 1.71725 30.486 1.69815Z" fill="#EAE9E8"/>
<path d="M30.486 1.69815C30.7913 1.2358 31.1298 0.844258 31.5942 0.534099C32.2379 0.104177 33.0049 -0.112108 33.7731 0.0583554C34.3924 0.195818 34.8962 0.613333 35.2354 1.13423C34.1743 1.44142 33.8124 1.84926 33.1972 2.76187C33.0354 3.20635 32.8968 3.67142 32.8576 4.14526L32.1123 3.84461C31.815 3.85255 31.2293 3.79284 30.9746 3.92137L30.6462 4.08108C30.5195 4.19621 30.3716 4.36973 30.2261 4.45352L29.9509 4.92868L29.7603 4.94043C28.8745 4.92455 28.0382 5.02115 27.2275 5.40368C26.9983 5.51186 26.7578 5.70441 26.5212 5.7762L26.5178 5.6949C26.4823 4.61984 26.742 3.65992 27.5035 2.86906C28.3026 2.03924 29.3609 1.71725 30.486 1.69815Z" fill="#DB8778"/>
<path d="M32.1123 3.8446C32.2479 3.48117 32.3623 3.0343 32.6424 2.75706C32.8952 2.65483 32.9461 2.68833 33.1971 2.76185C33.0353 3.20633 32.8967 3.67141 32.8575 4.14525L32.1123 3.8446Z" fill="#353C3A"/>
<path d="M30.646 4.08107C30.3782 3.89696 30.0703 3.70904 29.8536 3.46365C29.7131 3.3046 29.6395 3.13149 29.6493 2.91942L29.7902 2.84995C30.3831 2.97996 30.6366 3.46497 30.9744 3.92136L30.646 4.08107Z" fill="#353C3A"/>
<path d="M29.76 4.94043C29.6485 4.92662 29.5227 4.91669 29.4145 4.88477C29.2336 4.83142 29.2045 4.75648 29.1357 4.60107C29.2129 4.49289 29.2314 4.46303 29.3538 4.40919C29.6499 4.27909 29.9357 4.345 30.2258 4.45352L29.9506 4.92868L29.76 4.94043Z" fill="#353C3A"/>
<path d="M31.2377 2.18024C31.3378 2.22349 31.436 2.27511 31.4992 2.3679C31.753 2.74051 31.7105 3.48431 31.6644 3.91605L31.3117 3.81134C31.2634 3.75841 31.226 3.71631 31.1962 3.65023C30.9884 3.18937 31.0742 2.63886 31.2377 2.18024Z" fill="#353C3A"/>
<path d="M29.7606 4.94042L29.9512 4.92868C29.7189 5.80713 29.5937 6.69559 30.08 7.52095C30.427 8.11008 30.99 8.50668 31.5803 8.82626C31.0468 8.95827 30.5435 9.11219 30.0574 9.37793C29.8863 9.10772 28.2649 8.44936 27.8387 8.12688C27.0521 7.53162 26.6631 6.74108 26.5215 5.7762C26.758 5.70441 26.9986 5.51186 27.2277 5.40368C28.0385 5.02115 28.8748 4.92454 29.7606 4.94042Z" fill="#EBB19F"/>
<path d="M37.9783 14.1721C38.0032 14.1621 38.0288 14.1531 38.0536 14.142C38.3274 14.0193 38.9278 12.9298 39.1735 12.6276C40.5779 10.8975 42.486 9.86425 44.7464 9.91313C45.1716 9.92223 45.681 9.93827 46.0855 10.0576C46.2807 10.115 46.3138 10.1458 46.4196 10.3156C46.3551 11.5148 44.7795 13.4101 43.8755 14.2233C42.0121 15.8999 39.697 16.8644 37.3564 17.6654C38.5722 16.1257 39.9948 14.6149 41.5166 13.3772C42.046 12.9466 44.2816 11.5783 44.4437 11.2969C44.3718 11.25 44.3618 11.2201 44.2725 11.2331C42.2511 11.5271 38.3572 15.68 37.1479 17.2502C37.301 16.1811 37.564 15.1714 37.9783 14.1721Z" fill="#97A898"/>
<path d="M35.4719 17.2145L35.4984 17.1454C35.4455 16.9385 35.1163 16.8949 34.9229 16.8563C32.1907 16.3104 29.0954 15.8946 27.2568 13.5409C26.969 13.1726 26.4629 12.4435 26.5218 11.9809C26.9119 11.6472 28.0625 11.5309 28.5618 11.5029C31.0882 11.3607 33.4737 12.7081 35.0435 14.613C35.4198 15.0691 35.7143 15.7808 36.1353 16.1509L36.2329 15.9693C36.2759 16.2248 36.2932 16.4258 36.256 16.6853C35.9525 16.588 35.4728 15.9647 35.1874 15.7388C33.5772 14.4624 30.7529 12.7264 28.6218 12.7876L28.5667 12.8628C29.0975 13.2762 29.9945 13.4404 30.6277 13.66C32.5377 14.3226 34.6673 15.579 35.8847 17.2313L35.8193 17.3048C35.7134 17.2807 35.5646 17.2669 35.4719 17.2145Z" fill="#97A898"/>
<path d="M40.8231 1.65372C41.7792 2.84895 42.1381 4.17717 41.9727 5.69563C41.7511 7.73548 40.6088 9.64276 39.0134 10.9098L38.9472 10.962C39.3161 9.14195 39.5899 7.22335 40.1308 5.45081C40.2491 5.06522 40.5121 4.36897 40.3169 4.00191L40.1804 4.0565C39.3475 5.37472 38.9257 9.25683 38.4187 10.9851C37.5461 9.63597 37.6214 7.44228 37.9489 5.92316C38.2748 4.41049 39.0043 2.76599 40.3582 1.91499C40.5088 1.82062 40.6651 1.73585 40.8231 1.65372Z" fill="#97A898"/>
<path d="M33.197 2.76188C33.8123 1.84927 34.1741 1.44143 35.2352 1.13425C35.5843 1.87127 35.8903 2.60498 36.1169 3.38964C36.2451 3.8323 36.4692 5.48739 36.6603 5.73279C35.9821 5.86984 35.5115 6.23467 35.1343 6.80884C34.9244 7.12867 34.7601 7.49317 34.6082 7.84419C34.4402 7.53337 34.1684 7.14993 34.1004 6.80577C34.1669 6.7071 34.1579 6.68444 34.1499 6.56269C34.0837 5.54363 33.604 4.80322 32.8574 4.14527C32.8966 3.67143 33.0352 3.20636 33.197 2.76188Z" fill="#EBB19F"/>
<path d="M65.5526 17.0709C64.905 17.0516 64.2599 17.0872 63.6148 17.1411C62.0474 17.4572 60.1649 17.9916 59.227 19.4015C58.7589 20.1052 58.5504 20.9743 58.7167 21.8094C58.8391 22.4229 59.1675 22.9837 59.6985 23.3283C60.1897 23.647 60.8953 23.7926 61.4701 23.6637C61.9473 23.5568 62.3534 23.2472 62.6107 22.8348C62.9026 22.3666 62.9878 21.7726 62.8621 21.2373C62.7844 20.9071 62.5587 20.6472 62.3393 20.3945C61.975 19.9749 61.6281 19.5754 62.006 18.9073C62.3137 18.3642 63.0432 18.0406 63.6222 17.9069C64.5171 17.7003 65.5865 17.7635 66.3772 18.2652C67.1506 18.7561 67.5823 19.5625 67.7733 20.44C68.0091 21.5286 68.0645 23.1165 67.4301 24.067C66.8546 24.9295 65.3905 25.2682 63.7456 25.6487C61.3883 26.194 58.6597 26.8252 57.6439 29.2074C57.2532 30.1229 57.3702 31.0629 57.4583 31.7704C57.5072 32.1638 57.5472 32.4853 57.486 32.6909C57.4967 32.705 57.5075 32.719 57.5182 32.7332C57.6454 32.9045 57.7483 33.0893 57.8513 33.2743C57.9265 33.4093 58.0017 33.5443 58.0865 33.6744C58.7928 34.7602 59.7456 35.2321 61.0052 35.4262C62.9059 35.719 65.0133 35.3018 66.5724 34.1468C66.9446 33.8711 67.6328 33.2513 67.7063 32.773C67.7127 32.7814 67.719 32.7897 67.7251 32.7981L67.7328 32.8093C67.9607 33.1508 68.042 33.4926 68.1184 33.814C68.2791 34.4898 68.4184 35.0758 69.8551 35.3813C70.9328 35.6105 72.6019 35.4943 73.5581 34.8586C73.7541 34.7287 73.9559 34.5264 73.9939 34.2859C73.9989 34.2543 74.0002 34.2308 74.0001 34.2057C74.0001 34.1858 73.9993 34.1649 73.9989 34.138C73.9827 34.1228 73.9691 34.1094 73.9571 34.0976C73.886 34.028 73.8728 34.015 73.7433 34.0183C73.5537 34.0232 73.3595 34.0579 73.1653 34.0926C72.6717 34.1808 72.1791 34.2688 71.7666 33.866C71.1546 33.2683 71.1664 31.8849 71.1738 30.9975C71.1744 30.9289 71.1749 30.8633 71.1752 30.8012C71.1901 28.8823 71.1942 26.9633 71.1884 25.0443C71.181 20.7059 71.042 17.2341 65.5526 17.0709ZM67.5152 25.081L67.7518 25.0737L67.823 25.1728C67.8911 25.7247 67.8716 26.2796 67.8521 26.8345C67.8431 27.0885 67.8342 27.3426 67.8337 27.5963C67.8329 27.931 67.8443 28.2717 67.8557 28.6147C67.883 29.4348 67.9108 30.268 67.775 31.0592C67.6989 31.5063 67.5351 31.9341 67.2944 32.3186C66.7651 33.1623 65.8908 33.687 64.929 33.8923C63.79 34.1354 62.896 33.8837 61.9382 33.2695C61.8799 33.166 61.8236 33.0672 61.7694 32.9721C61.2093 31.9895 60.8748 31.4029 60.9879 30.0913C61.2009 27.6143 63.6625 26.6939 65.6833 25.9384L65.8387 25.8802L65.9471 25.8395C66.023 25.811 66.107 25.781 66.1957 25.7492L66.197 25.7488C66.6212 25.5972 67.1554 25.4063 67.4458 25.1461C67.4555 25.1376 67.4648 25.129 67.4741 25.1202C67.4878 25.1072 67.5014 25.094 67.5152 25.081Z" fill="#353C3A"/>
<path d="M65.8688 25.8687C65.8439 25.8781 65.819 25.8874 65.7939 25.8968L65.8382 25.8802L65.8688 25.8687Z" fill="#EAE9E8"/>
<path d="M8.93548 7.28877C9.33628 7.24485 9.77142 7.25966 10.1734 7.29928C11.7225 7.43947 13.1511 8.19394 14.1404 9.39422C14.8009 10.2097 15.1856 11.1985 15.0651 12.2558C14.9947 12.8745 14.7635 13.4726 14.2614 13.8667C13.7249 14.2879 12.9562 14.4968 12.2799 14.4133C11.7104 14.343 11.2133 14.0418 10.866 13.587C10.5568 13.1821 10.4222 12.5793 10.4978 12.0778C10.6638 10.9763 11.8175 10.875 12.5498 10.32C12.7465 10.1709 12.8291 10.0197 12.8646 9.77815C12.8198 9.49595 12.7049 9.31184 12.515 9.1073C11.8105 8.34828 10.738 7.99817 9.72254 7.97278C8.84781 7.95078 7.98184 8.18401 7.34688 8.81145C5.83058 10.3094 6.24652 15.0368 6.25099 17.0876C7.26616 17.0971 13.0785 16.9175 13.6023 17.3031C13.6537 17.4738 13.6312 17.5727 13.5873 17.7434C13.1895 18.0154 7.26302 17.8713 6.2452 17.886L6.25355 23.7516C6.77661 23.7527 7.30206 23.7594 7.82461 23.7375C11.5043 23.5838 10.4027 20.9276 11.2871 20.0479C11.3797 19.9558 11.4279 19.981 11.5558 19.981C11.8119 20.3207 11.6963 26.6712 11.6961 27.6243C11.699 27.848 11.6829 28.067 11.6645 28.2896L11.5065 28.4186C11.3018 28.421 11.2515 28.4528 11.0915 28.3161C10.9664 27.2858 10.671 25.9788 9.90202 25.2398C8.94855 24.3235 7.46937 24.5156 6.25347 24.5311C6.24644 26.2815 5.85944 32.6593 6.98123 33.8754C7.59509 34.5409 8.72018 34.453 9.15259 34.9947L9.1334 35.1132C8.89305 35.2464 8.59786 35.2538 8.32856 35.265C7.55531 35.297 0.60907 35.28 0.22745 35.1641C0.151027 35.1409 0.180472 35.1365 0.101402 35.1466C0.0864321 35.1485 0.0719564 35.1531 0.0573168 35.1563L0.0186075 35.065C0.123152 34.6734 1.71348 34.3638 2.1683 33.8891C3.16519 32.8484 2.80425 26.3387 2.79432 24.5443C2.09394 24.5331 0.692607 24.7778 0.16666 24.3459C0.0688979 24.1549 0.0417658 24.1194 0.0638492 23.9093C0.452417 23.5619 2.23472 23.7279 2.78755 23.7262C2.79648 21.7701 2.79515 19.814 2.78357 17.8578C1.93274 17.8737 0.792271 18.0236 0.0204299 17.6163L0 17.3726C0.530579 16.9297 2.09849 17.0924 2.7887 17.0979C2.75785 14.5575 2.79457 11.5322 4.47952 9.45145C5.59477 8.07418 7.22712 7.46701 8.93548 7.28877Z" fill="#353C3A"/>
<path d="M21.2539 6.00189L21.3494 6.02067C21.4792 6.17269 21.4795 6.25424 21.4895 6.44794C21.5982 8.55281 21.4813 10.7256 21.4805 12.838L21.4769 26.2022C21.4767 27.8065 21.2464 32.1222 21.7565 33.3814C22.3226 34.7793 23.6452 34.3379 24.0716 34.9947L24.0049 35.1696C23.6188 35.3199 16.9814 35.2388 15.9106 35.2717C15.8258 35.2716 15.8425 35.2808 15.7794 35.2558C15.6169 35.1913 15.6212 35.1272 15.5532 34.9773C15.7138 34.4259 16.8938 34.6484 17.375 34.113C17.7921 33.649 17.9546 33.0321 18.0309 32.4286C18.189 31.1779 18.1405 29.8927 18.14 28.6341L18.1352 23.334L18.1315 15.7446C18.1335 14.0597 18.176 12.3648 18.095 10.6818C18.0059 8.83087 18.0687 8.48565 16.239 7.91942C16.0542 7.86219 15.7915 7.80048 15.6545 7.65599C15.5682 7.56501 15.5939 7.53408 15.5918 7.41672L15.6688 7.42647C15.8135 7.25849 16.4779 7.22235 16.7102 7.19282C18.2993 6.99052 19.8141 6.73428 21.2539 6.00189Z" fill="#353C3A"/>
<path d="M48.2399 16.97L48.4889 17.0014C48.5087 17.0324 48.541 17.0773 48.5551 17.1141C48.7403 17.5973 48.6386 20.8331 48.4517 21.2735C48.7188 21.0411 48.8338 20.713 48.9926 20.4044C49.5542 19.3135 50.2481 18.3563 51.3688 17.7837C52.5334 17.1886 54.0445 16.8786 55.3074 17.3037C56.0088 17.5396 56.5754 18.0237 56.8971 18.6925C57.2321 19.3902 57.2982 20.2114 57.0286 20.942C56.8086 21.5364 56.3669 22.0666 55.7847 22.3325C55.233 22.5843 54.621 22.5627 54.0627 22.3398C53.4986 22.1143 53.0205 21.7114 52.7906 21.1396C52.3473 20.04 52.9436 19.6424 53.2869 18.7383C53.3539 18.5633 53.3414 18.5093 53.2645 18.3453C53.0288 18.2318 52.7815 18.2803 52.5375 18.3389C49.431 19.0838 48.7023 22.7553 48.6394 25.4951C48.6237 26.17 48.6485 28.5356 48.6485 28.5356C48.6485 28.5356 48.6229 30.8094 48.6485 31.4626C48.7106 33.0496 48.8197 34.1257 50.5169 34.6349C50.765 34.7093 51.081 34.7556 51.2704 34.9418C51.3209 34.9911 51.296 35.0809 51.2952 35.1485C51.2762 35.163 51.2572 35.1784 51.2381 35.192C51.1331 35.2643 43.2286 35.2917 42.7902 35.1819L42.7373 34.9998C42.9201 34.3099 44.2484 34.6553 44.7604 34.0036C45.0151 33.6793 45.1135 33.2564 45.1714 32.8566C45.4833 30.7109 45.3327 28.3923 45.3277 26.2201C45.3236 24.4205 45.4386 22.5035 45.1938 20.7255C44.8538 18.2514 43.9531 19.413 42.93 18.6337C42.8407 18.4384 42.8548 18.4176 42.9036 18.2053C44.6462 17.8754 46.5808 17.8606 48.1829 17.0012L48.2399 16.97Z" fill="#353C3A"/>
</g>
<defs>
<clipPath id="clip0_11821_29">
<rect width="74" height="35.6389" fill="white"/>
</clipPath>
</defs>
</svg>
